<svg width="18" height="18" viewBox="0 0 18 18" fill="none" xmlns="http://www.w3.org/2000/svg">
<path d="M12 7.5C12 7.89782 11.842 8.27936 11.5607 8.56066C11.2794 8.84196 10.8978 9 10.5 9C11.34 9 12 9.67 12 10.5V12C12 13.11 11.11 14 10 14H6V12H10V10H8V8H10V6H6V4H10C11.11 4 12 4.89 12 6V7.5ZM16 0H2C0.91 0 0 0.9 0 2V16C0 16.5304 0.210714 17.0391 0.585786 17.4142C0.960859 17.7893 1.46957 18 2 18H16C17.11 18 18 17.1 18 16V2C18 1.46957 17.7893 0.960859 17.4142 0.585786C17.0391 0.210714 16.5304 0 16 0Z" fill="#FFC700"/>
</svg>
