<svg width="63" height="63" viewBox="0 0 63 63" fill="none" xmlns="http://www.w3.org/2000/svg">
<path d="M12.75 37.75H19L28.375 47.125H22.125L12.75 37.75ZM6.5 6.5H9.625V3.375C9.625 2.5462 9.95424 1.75134 10.5403 1.16529C11.1263 0.57924 11.9212 0.25 12.75 0.25H25.25C26.0788 0.25 26.8737 0.57924 27.4597 1.16529C28.0458 1.75134 28.375 2.5462 28.375 3.375V6.5H34.625V3.375C34.625 2.5462 34.9542 1.75134 35.5403 1.16529C36.1263 0.57924 36.9212 0.25 37.75 0.25H50.25C51.0788 0.25 51.8737 0.57924 52.4597 1.16529C53.0458 1.75134 53.375 2.5462 53.375 3.375V6.5H56.5C58.1576 6.5 59.7473 7.15848 60.9194 8.33058C62.0915 9.50268 62.75 11.0924 62.75 12.75V53.375C62.75 55.0326 62.0915 56.6223 60.9194 57.7944C59.7473 58.9665 58.1576 59.625 56.5 59.625V62.75H47.125V59.625H15.875V62.75H6.5V59.625C4.8424 59.625 3.25268 58.9665 2.08058 57.7944C0.90848 56.6223 0.25 55.0326 0.25 53.375V12.75C0.25 11.0924 0.90848 9.50268 2.08058 8.33058C3.25268 7.15848 4.8424 6.5 6.5 6.5ZM50.25 15.875C51.0788 15.875 51.8737 16.2042 52.4597 16.7903C53.0458 17.3763 53.375 18.1712 53.375 19C53.375 19.8288 53.0458 20.6237 52.4597 21.2097C51.8737 21.7958 51.0788 22.125 50.25 22.125C49.4212 22.125 48.6263 21.7958 48.0403 21.2097C47.4542 20.6237 47.125 19.8288 47.125 19C47.125 18.1712 47.4542 17.3763 48.0403 16.7903C48.6263 16.2042 49.4212 15.875 50.25 15.875ZM37.75 15.875C38.5788 15.875 39.3737 16.2042 39.9597 16.7903C40.5458 17.3763 40.875 18.1712 40.875 19C40.875 19.8288 40.5458 20.6237 39.9597 21.2097C39.3737 21.7958 38.5788 22.125 37.75 22.125C36.9212 22.125 36.1263 21.7958 35.5403 21.2097C34.9542 20.6237 34.625 19.8288 34.625 19C34.625 18.1712 34.9542 17.3763 35.5403 16.7903C36.1263 16.2042 36.9212 15.875 37.75 15.875ZM56.5 12.75H6.5V25.25H56.5V12.75ZM6.5 53.375H56.5V31.5H6.5V53.375ZM12.75 15.875C13.5788 15.875 14.3737 16.2042 14.9597 16.7903C15.5458 17.3763 15.875 18.1712 15.875 19C15.875 19.8288 15.5458 20.6237 14.9597 21.2097C14.3737 21.7958 13.5788 22.125 12.75 22.125C11.9212 22.125 11.1263 21.7958 10.5403 21.2097C9.95424 20.6237 9.625 19.8288 9.625 19C9.625 18.1712 9.95424 17.3763 10.5403 16.7903C11.1263 16.2042 11.9212 15.875 12.75 15.875ZM34.625 37.75H40.875L50.25 47.125H44L34.625 37.75Z" fill="black"/>
</svg>
